<svg width="64" height="64" viewBox="0 0 64 64" xmlns="http://www.w3.org/2000/svg">
  <rect width="64" height="64" rx="14" fill="#232F3E" />
  <g fill="#FF9900">
    <path d="M20 34c0-4.4 3.6-8 8-8h1c0-3.3 2.7-6 6-6 3 0 5.4 2.2 5.9 5.1 1.5-.2 3.1-.1 4.6.5 2.4.9 4.2 3.1 4.5 5.7 3.2.4 5.8 3 5.8 6.3 0 3.5-2.8 6.3-6.3 6.3H20.5C20.2 41.5 20 37.9 20 34Z" />
    <path d="M24 41.2c0-2.6 2.2-4.7 4.9-4.8 0 0 1.5 0 2.4.5 0 0 1.1.6 2.4.6 1.7 0 2.7-1.2 2.8-2.7.2-1.8-1.1-3.2-2.8-3.2-1.4 0-2.1.7-2.1.7s-.8 1.3-2.9 1.3c-2 0-3.2-1.1-3.5-2.8-.3-2 1.2-4 3.6-4 2.4 0 3.8 1.7 3.8 1.7s1.1 1.5 3.1 1.5c1.8 0 3.5-1.2 3.4-2.8-.1-1.2-.8-2.2-2-2.8 0 0 2.7-.2 4.8 1.7 2.2 1.9 2.7 5.6 1.1 8.2-.6 1.1-1.9 2.1-4.1 2.1h-9.3c-1.9 0-3.5-1.5-3.5-3.4Z" fill="#FFF" opacity="0.9" />
  </g>
</svg>